G04 Layer_Color=65535*
%FSLAX25Y25*%
%MOIN*%
G70*
G01*
G75*
%ADD21C,0.00800*%
%ADD22C,0.01000*%
%ADD23C,0.00984*%
%ADD24C,0.00787*%
%ADD25C,0.00500*%
%ADD26R,0.02059X0.01500*%
D21*
X80586Y62400D02*
G03*
X80586Y62400I-1200J0D01*
G01*
X9500Y58500D02*
X72496D01*
X9500Y121496D02*
X72496D01*
X69500Y40000D02*
Y43999D01*
X71499D01*
X72166Y43332D01*
Y41999D01*
X71499Y41333D01*
X69500D01*
X70833D02*
X72166Y40000D01*
X73499D02*
X74832D01*
X74165D01*
Y43999D01*
X73499Y43332D01*
X42166D02*
X41499Y43999D01*
X40167D01*
X39500Y43332D01*
Y40666D01*
X40167Y40000D01*
X41499D01*
X42166Y40666D01*
X43499Y40000D02*
X44832D01*
X44165D01*
Y43999D01*
X43499Y43332D01*
X13000Y39332D02*
X13667Y39999D01*
X14999D01*
X15666Y39332D01*
Y38666D01*
X14999Y37999D01*
X14333D01*
X14999D01*
X15666Y37333D01*
Y36667D01*
X14999Y36000D01*
X13667D01*
X13000Y36667D01*
X16999Y38666D02*
X18332Y36000D01*
X19665Y38666D01*
X20998Y39332D02*
X21664Y39999D01*
X22997D01*
X23663Y39332D01*
Y38666D01*
X22997Y37999D01*
X22330D01*
X22997D01*
X23663Y37333D01*
Y36667D01*
X22997Y36000D01*
X21664D01*
X20998Y36667D01*
X8000Y129000D02*
X5334D01*
X4001Y130333D01*
X5334Y131666D01*
X8000D01*
X6001D01*
Y129000D01*
X8000Y132999D02*
X4001D01*
X8000Y135665D01*
X4001D01*
Y136997D02*
Y139663D01*
Y138330D01*
X8000D01*
X33000Y95000D02*
Y98999D01*
X34999D01*
X35666Y98332D01*
Y96999D01*
X34999Y96333D01*
X33000D01*
X34333D02*
X35666Y95000D01*
X39665Y98999D02*
X36999D01*
Y96999D01*
X38332D01*
X36999D01*
Y95000D01*
X40997D02*
Y98999D01*
X42330Y97666D01*
X43663Y98999D01*
Y95000D01*
X44996Y95666D02*
X45663Y95000D01*
X46995D01*
X47662Y95666D01*
Y98332D01*
X46995Y98999D01*
X45663D01*
X44996Y98332D01*
Y97666D01*
X45663Y96999D01*
X47662D01*
X48995Y97666D02*
X51661Y95000D01*
X50328Y96333D01*
X51661Y97666D01*
X48995Y95000D01*
X48000Y77499D02*
X49333D01*
X48667D01*
Y73500D01*
X48000D01*
X49333D01*
X53998Y76832D02*
X53332Y77499D01*
X51999D01*
X51332Y76832D01*
Y74167D01*
X51999Y73500D01*
X53332D01*
X53998Y74167D01*
D22*
X59500Y66000D02*
Y86000D01*
X44000D02*
X59500D01*
X42500Y84500D02*
X44000Y86000D01*
X41500Y83500D02*
X42500Y84500D01*
X41500Y66000D02*
Y83500D01*
Y66000D02*
X59500D01*
X4079Y30476D02*
Y45476D01*
X32032D01*
Y30476D02*
Y45476D01*
X4079Y30476D02*
X32032D01*
D23*
X16492Y142071D02*
G03*
X16492Y142071I-492J0D01*
G01*
D24*
X10488Y128488D02*
Y139512D01*
Y128488D02*
X21512D01*
Y139512D01*
X10488D02*
X21512D01*
D25*
X11285Y48000D02*
X10143Y50999D01*
X9000Y48000D01*
X9428Y49000D02*
X10857D01*
X11985Y50999D02*
Y48000D01*
Y50999D02*
X13128Y48000D01*
X14270Y50999D02*
X13128Y48000D01*
X14270Y50999D02*
Y48000D01*
X17127Y50571D02*
X16841Y50857D01*
X16413Y50999D01*
X15841D01*
X15413Y50857D01*
X15127Y50571D01*
Y50285D01*
X15270Y50000D01*
X15413Y49857D01*
X15699Y49714D01*
X16556Y49428D01*
X16841Y49285D01*
X16984Y49143D01*
X17127Y48857D01*
Y48428D01*
X16841Y48143D01*
X16413Y48000D01*
X15841D01*
X15413Y48143D01*
X15127Y48428D01*
X17798Y50428D02*
X18084Y50571D01*
X18512Y50999D01*
Y48000D01*
X19998Y50428D02*
X20283Y50571D01*
X20712Y50999D01*
Y48000D01*
X22197Y50428D02*
X22483Y50571D01*
X22911Y50999D01*
Y48000D01*
X26396Y50999D02*
X24968Y48000D01*
X24397Y50999D02*
X26396D01*
D26*
X79431Y62350D02*
D03*
M02*
