G04 Layer_Color=8388736*
%FSLAX25Y25*%
%MOIN*%
G70*
G01*
G75*
%ADD27R,0.06784X0.16784*%
%ADD28R,0.08500X0.05000*%
%ADD29R,0.06312X0.05131*%
%ADD30R,0.13792X0.07887*%
%ADD31R,0.04737X0.07887*%
%ADD32C,0.06706*%
%ADD33R,0.06706X0.06706*%
%ADD34R,0.06706X0.06706*%
%ADD35C,0.03200*%
D27*
X53000Y135945D02*
D03*
X33000D02*
D03*
X43000D02*
D03*
D28*
X70134Y62400D02*
D03*
Y70300D02*
D03*
Y78100D02*
D03*
Y86000D02*
D03*
Y93937D02*
D03*
Y101811D02*
D03*
Y109685D02*
D03*
Y117559D02*
D03*
X11800D02*
D03*
Y109685D02*
D03*
Y101811D02*
D03*
Y93937D02*
D03*
Y86000D02*
D03*
Y78100D02*
D03*
Y70300D02*
D03*
Y62400D02*
D03*
D29*
X72000Y30547D02*
D03*
Y36453D02*
D03*
X42000Y30547D02*
D03*
Y36453D02*
D03*
D30*
X18055Y51559D02*
D03*
D31*
X9000Y24000D02*
D03*
X27110D02*
D03*
X18055D02*
D03*
D32*
X13000Y10000D02*
D03*
X42000Y51000D02*
D03*
X52000D02*
D03*
X62000D02*
D03*
X72000D02*
D03*
X42000Y21000D02*
D03*
X52000D02*
D03*
X62000D02*
D03*
Y10000D02*
D03*
X52000D02*
D03*
D33*
X23000Y10000D02*
D03*
X42000Y10000D02*
D03*
X16000Y134000D02*
D03*
D34*
X72000Y21000D02*
D03*
D35*
X8000Y34000D02*
D03*
X27000Y42000D02*
D03*
M02*
