G04 Layer_Physical_Order=1*
G04 Layer_Color=255*
%FSLAX25Y25*%
%MOIN*%
G70*
G01*
G75*
%ADD10R,0.05984X0.15984*%
%ADD11R,0.07700X0.04200*%
%ADD12R,0.05512X0.04331*%
%ADD13R,0.12992X0.07087*%
%ADD14R,0.03937X0.07087*%
%ADD15C,0.01600*%
%ADD16C,0.02400*%
%ADD17C,0.05906*%
%ADD18R,0.05906X0.05906*%
%ADD19R,0.05906X0.05906*%
%ADD20C,0.02400*%
D10*
X53000Y135945D02*
D03*
X33000D02*
D03*
X43000D02*
D03*
D11*
X70134Y62400D02*
D03*
Y70300D02*
D03*
Y78100D02*
D03*
Y86000D02*
D03*
Y93937D02*
D03*
Y101811D02*
D03*
Y109685D02*
D03*
Y117559D02*
D03*
X11800D02*
D03*
Y109685D02*
D03*
Y101811D02*
D03*
Y93937D02*
D03*
Y86000D02*
D03*
Y78100D02*
D03*
Y70300D02*
D03*
Y62400D02*
D03*
D12*
X72000Y30547D02*
D03*
Y36453D02*
D03*
X42000Y30547D02*
D03*
Y36453D02*
D03*
D13*
X18055Y51559D02*
D03*
D14*
X9000Y24000D02*
D03*
X27110D02*
D03*
X18055D02*
D03*
D15*
X36000Y43000D02*
X36000Y43000D01*
X34000Y43000D02*
X36000D01*
X29000Y48000D02*
X34000Y43000D01*
X29000Y48000D02*
Y61000D01*
X22000Y68000D02*
X29000Y61000D01*
X22000Y68000D02*
Y74000D01*
X70071Y94000D02*
X70134Y93937D01*
X64000Y94000D02*
X70071D01*
X57000Y87000D02*
X64000Y94000D01*
X57000Y70000D02*
Y87000D01*
X42000Y55000D02*
X57000Y70000D01*
X63100Y78100D02*
X70134D01*
X62000Y77000D02*
X63100Y78100D01*
X62000Y65000D02*
Y77000D01*
X52000Y55000D02*
X62000Y65000D01*
X42000Y55000D02*
X42000Y55000D01*
Y51000D02*
Y55000D01*
X36000Y43000D02*
X47000D01*
X64000Y57000D02*
X76000D01*
X62000Y55000D02*
X64000Y57000D01*
X62000Y55000D02*
X62000Y55000D01*
Y51000D02*
Y55000D01*
X52000Y51000D02*
Y55000D01*
X70134Y86000D02*
X76000D01*
X77000Y85000D01*
Y58000D02*
Y85000D01*
X76000Y57000D02*
X77000Y58000D01*
X50000Y33000D02*
X62000Y21000D01*
X47000Y43000D02*
X50000Y40000D01*
X52000Y20000D02*
X62000Y10000D01*
X18000Y78000D02*
X22000Y74000D01*
X11900Y78000D02*
X18000D01*
X11800Y78100D02*
X11900Y78000D01*
X52000Y20000D02*
Y21000D01*
X72000Y30547D02*
X72000Y30547D01*
Y21000D02*
Y30547D01*
X50000Y33000D02*
Y40000D01*
D16*
X4000Y47110D02*
X18055Y33055D01*
X42000Y10000D02*
X42000Y10000D01*
X42000Y5000D02*
Y10000D01*
Y5000D02*
X42753Y4247D01*
X65113D01*
X77753Y16887D01*
Y33676D01*
X74976Y36453D02*
X77753Y33676D01*
X72000Y36453D02*
X74976D01*
X30000Y36000D02*
X41547D01*
X6000Y86000D02*
X11800D01*
X4000Y84000D02*
X6000Y86000D01*
X4000Y47110D02*
Y84000D01*
X42000Y20000D02*
Y21000D01*
Y20000D02*
X52000Y10000D01*
X21000Y36000D02*
X30000D01*
X33000Y33000D01*
Y12000D02*
Y33000D01*
Y12000D02*
X35000Y10000D01*
X42000D01*
X42000Y30547D02*
X42000Y30547D01*
Y21000D02*
Y30547D01*
X72000Y36453D02*
X72000Y36453D01*
Y51000D01*
X18055Y24000D02*
Y33055D01*
X21000Y36000D01*
X41547D02*
X42000Y36453D01*
X27110Y18110D02*
Y24000D01*
X23000Y14000D02*
X27110Y18110D01*
X23000Y10000D02*
Y14000D01*
X9000Y14000D02*
Y24000D01*
Y14000D02*
X13000Y10000D01*
X41559Y117559D02*
X43000Y119000D01*
Y135945D01*
X11800Y117559D02*
Y120800D01*
X53000Y120000D02*
Y135945D01*
X55441Y117559D02*
X70134D01*
X11800D02*
X41559D01*
X11800Y120800D02*
X16000Y125000D01*
Y134000D01*
X11800Y109685D02*
X45126D01*
X54221Y118780D01*
X53000Y120000D02*
X54221Y118780D01*
X55441Y117559D01*
D17*
X13000Y10000D02*
D03*
X42000Y51000D02*
D03*
X52000D02*
D03*
X62000D02*
D03*
X72000D02*
D03*
X42000Y21000D02*
D03*
X52000D02*
D03*
X62000D02*
D03*
Y10000D02*
D03*
X52000D02*
D03*
D18*
X23000Y10000D02*
D03*
X42000Y10000D02*
D03*
X16000Y134000D02*
D03*
D19*
X72000Y21000D02*
D03*
D20*
X8000Y34000D02*
D03*
X27000Y42000D02*
D03*
M02*
