G04 Layer_Color=32896*
%FSLAX25Y25*%
%MOIN*%
G70*
G01*
G75*
%ADD21C,0.00800*%
%ADD23C,0.00984*%
%ADD24C,0.00787*%
%ADD25C,0.00500*%
%ADD36C,0.02362*%
D21*
X35000Y15000D02*
X32334D01*
X31001Y13667D01*
X32334Y12334D01*
X35000D01*
X33001D01*
Y15000D01*
X31001Y11001D02*
X35000D01*
Y9002D01*
X34334Y8336D01*
X31668D01*
X31001Y9002D01*
Y11001D01*
X31668Y4337D02*
X31001Y5003D01*
Y6336D01*
X31668Y7003D01*
X34334D01*
X35000Y6336D01*
Y5003D01*
X34334Y4337D01*
X63334Y38332D02*
Y37666D01*
X64000D01*
X62667D01*
X63334D01*
Y35666D01*
X62667Y35000D01*
X60668D02*
X59335D01*
X60001D01*
Y37666D01*
X60668D01*
X57336Y35000D02*
Y37666D01*
X55336D01*
X54670Y36999D01*
Y35000D01*
X53337Y37666D02*
Y35666D01*
X52670Y35000D01*
X50671D01*
Y34334D01*
X51337Y33667D01*
X52004D01*
X50671Y35000D02*
Y37666D01*
X6000Y15000D02*
X2001D01*
Y13001D01*
X2668Y12334D01*
X4001D01*
X4667Y13001D01*
Y15000D01*
X2001Y11001D02*
X6000D01*
X4667Y9668D01*
X6000Y8336D01*
X2001D01*
X6000Y7003D02*
X2001D01*
Y5003D01*
X2668Y4337D01*
X4001D01*
X4667Y5003D01*
Y7003D01*
Y5670D02*
X6000Y4337D01*
D23*
X77610Y21000D02*
G03*
X77610Y21000I-492J0D01*
G01*
D24*
X77276Y38500D02*
G03*
X77276Y33500I0J-2500D01*
G01*
X8000Y15000D02*
X28000D01*
Y5000D02*
Y15000D01*
X8000Y5000D02*
X28000D01*
X8000D02*
Y15000D01*
X36724Y25567D02*
Y46433D01*
X77276Y38500D02*
Y46433D01*
Y25567D02*
Y33500D01*
X36724Y46433D02*
X77276D01*
X36724Y25567D02*
X77276D01*
X37000Y5000D02*
Y15000D01*
Y5000D02*
X67000D01*
Y15000D01*
X37000D02*
X67000D01*
D25*
X23285Y4071D02*
Y1500D01*
X22000Y2785D02*
X24571D01*
X63285Y1000D02*
X62143Y3999D01*
X61000Y1000D01*
X61428Y2000D02*
X62857D01*
X51000Y2785D02*
X53571D01*
X41785Y4071D02*
Y1500D01*
X40500Y2785D02*
X43071D01*
D36*
X74520Y29504D02*
G03*
X74520Y29504I-1181J0D01*
G01*
M02*
